<svg width="74" height="68" viewBox="0 0 74 68" fill="none" xmlns="http://www.w3.org/2000/svg">
<path d="M5 29.5C2.51472 29.5 0.5 31.5147 0.5 34C0.5 36.4853 2.51472 38.5 5 38.5L5 29.5ZM58.182 37.182C59.9393 35.4246 59.9393 32.5754 58.182 30.818L29.5442 2.18019C27.7868 0.422836 24.9376 0.422836 23.1802 2.18019C21.4228 3.93755 21.4228 6.7868 23.1802 8.54416L48.636 34L23.1802 59.4558C21.4228 61.2132 21.4228 64.0624 23.1802 65.8198C24.9376 67.5772 27.7868 67.5772 29.5442 65.8198L58.182 37.182ZM5 34L5 38.5L30 38.5V34V29.5L5 29.5L5 34ZM30 34V38.5L55 38.5V34V29.5L30 29.5V34Z" fill="white"/>
<path d="M69 38.5C71.4853 38.5 73.5 36.4853 73.5 34C73.5 31.5147 71.4853 29.5 69 29.5V38.5ZM15.818 30.818C14.0607 32.5754 14.0607 35.4246 15.818 37.182L44.4558 65.8198C46.2132 67.5772 49.0624 67.5772 50.8198 65.8198C52.5772 64.0624 52.5772 61.2132 50.8198 59.4558L25.364 34L50.8198 8.54416C52.5772 6.7868 52.5772 3.93755 50.8198 2.18019C49.0624 0.422836 46.2132 0.422836 44.4558 2.18019L15.818 30.818ZM69 34V29.5L19 29.5V34V38.5L69 38.5V34Z" fill="white"/>
</svg>
